# xmcd
# 
# Track frame offsets:
#     150
#     14157
#     26237
#     39507
#     54492
#     68005
#     79130
#     93430
#     109197
#     132922
#     151272
#     172597
#     188005
#     204132
#     222657
#     241475
# 
# Disc length: 3418
# 
# Revision: 1
# Processed by: cddbd v1.5.2PL0 Copyright (c) Steve Scherf et al.
# Submitted via: BonkEnc v1.0.5
# 
DISCID=d50d5810
DTITLE=The Meters - The Very Best of The Meters
DYEAR=1997
DGENRE=Funk
TTITLE0=Cissy Strut
TTITLE1=Live Wire
TTITLE2=Sophisticated Cissy
TTITLE3=Look-Ka Py Py
TTITLE4=Pungee
TTITLE5=Tippi-Toes
TTITLE6=Soul Island
TTITLE7=Cabbage Alley
TTITLE8=People Say
TTITLE9=Hey Pocky A-Way
TTITLE10=Just Kissed My Baby
TTITLE11=Jungle Man
TTITLE12=Out in the Country
TTITLE13=Fire On The Bayou
TTITLE14=They All Asked For You
TTITLE15=Trick Bag
EXTD=
EXTT0=
EXTT1=
EXTT2=
EXTT3=
EXTT4=
EXTT5=
EXTT6=
EXTT7=
EXTT8=
EXTT9=
EXTT10=
EXTT11=
EXTT12=
EXTT13=
EXTT14=
EXTT15=
PLAYORDER=
